<svg width="200" height="48" viewBox="0 0 200 48" fill="none" xmlns="http://www.w3.org/2000/svg">
<path fill-rule="evenodd" clip-rule="evenodd" d="M158.151 12.3387L153.757 11.4265V39.1766H162.593V11.4265L158.151 12.3387ZM154.378 7.72971C155.365 8.52989 156.639 8.92998 158.199 8.92998C159.791 8.92998 161.065 8.52989 162.02 7.72971C162.975 6.89753 163.453 5.80929 163.453 4.46498C163.453 3.08868 162.975 2.00044 162.02 1.20027C161.065 0.400087 159.791 0 158.199 0C156.639 0 155.365 0.400087 154.378 1.20027C153.391 2.00044 152.898 3.08868 152.898 4.46498C152.898 5.80929 153.391 6.89753 154.378 7.72971ZM176.478 25.2125L164.966 39.1766H174.853L182.073 30.3636L189.372 39.1766H199.45L187.739 25.1592L198.686 11.8106H188.99L182.28 19.9845L175.569 11.8106H165.683L176.478 25.2125ZM139.3 32.311V31.0734C139.03 31.3771 138.744 31.6777 138.441 31.9749C137.135 33.2872 135.543 34.3755 133.665 35.2396C131.786 36.0718 129.653 36.4879 127.265 36.4879C124.717 36.4879 122.441 35.9598 120.435 34.9036C118.461 33.8473 116.885 32.375 115.706 30.4866C114.56 28.5662 113.987 26.3257 113.987 23.7651C113.987 21.2046 114.56 18.9801 115.706 17.0917C116.885 15.1712 118.461 13.6829 120.435 12.6267C122.441 11.5705 124.717 11.0423 127.265 11.0423C129.175 11.0423 130.926 11.3464 132.518 11.9545C134.11 12.5307 135.527 13.2988 136.769 14.259C137.726 14.9993 138.57 15.7966 139.3 16.651V11.8105H148.184V31.8789C148.184 35.2717 147.404 38.1523 145.844 40.5208C144.315 42.9213 142.182 44.7457 139.444 45.994C136.705 47.2423 133.521 47.8664 129.892 47.8664C127.376 47.8664 125.052 47.5303 122.918 46.8582C120.817 46.2181 118.731 45.2418 116.662 43.9296V37.1121C118.636 38.5844 120.69 39.6406 122.823 40.2808C124.956 40.9529 127.121 41.289 129.318 41.289C132.534 41.289 135.002 40.5688 136.721 39.1285C138.441 37.6562 139.3 35.3837 139.3 32.311ZM135.48 18.772C137.072 19.8283 138.441 21.4926 139.587 23.7651C138.441 26.0056 137.088 27.654 135.527 28.7102C133.967 29.7664 132.2 30.2946 130.226 30.2946C128.698 30.2946 127.376 30.0225 126.262 29.4784C125.179 28.9343 124.351 28.1821 123.778 27.2219C123.205 26.2297 122.918 25.0774 122.918 23.7651C122.918 22.4208 123.205 21.2686 123.778 20.3084C124.383 19.3162 125.227 18.548 126.309 18.0039C127.392 17.4597 128.698 17.1877 130.226 17.1877C132.168 17.1877 133.919 17.7158 135.48 18.772ZM85.697 11.8105H76.8612L78.5806 21.1246V39.1765H87.4642V25.9736C87.4642 24.4053 87.7507 23.061 88.3239 21.9407C88.897 20.7885 89.7249 19.9083 90.8075 19.3002C91.89 18.66 93.1637 18.3399 94.6284 18.3399C96.698 18.3399 98.29 18.9321 99.4045 20.1163C100.519 21.2686 101.076 22.981 101.076 25.2535V39.1765H109.96V23.9092C109.96 21.2526 109.466 18.9801 108.479 17.0917C107.524 15.1712 106.123 13.6829 104.276 12.6267C102.461 11.5705 100.248 11.0423 97.6373 11.0423C95.4403 11.0423 93.4184 11.5705 91.5716 12.6267C89.7567 13.6509 88.2284 15.1552 86.9866 17.1397C86.8781 17.3178 86.7726 17.4998 86.6711 17.6854L85.697 11.8105ZM56.6473 39.9447C53.2085 39.9447 50.1995 39.3365 47.6205 38.1203C45.0414 36.904 43.0355 35.2076 41.6026 33.0312C40.1698 30.8547 39.4534 28.3421 39.4534 25.4935C39.4534 22.6129 40.1698 20.1003 41.6026 17.9559C43.0355 15.7794 45.0414 14.083 47.6205 12.8667C50.2313 11.6505 53.2403 11.0423 56.6473 11.0423C60.0861 11.0423 63.095 11.6505 65.6741 12.8667C68.2532 14.083 70.2592 15.7794 71.692 17.9559C73.1567 20.1003 73.8891 22.6129 73.8891 25.4935C73.8891 28.3741 73.1567 30.9027 71.692 33.0792C70.2592 35.2236 68.2532 36.904 65.6741 38.1203C63.095 39.3365 60.0861 39.9447 56.6473 39.9447ZM56.6473 33.2232C58.3985 33.2232 59.8791 32.9191 61.0891 32.311C62.3308 31.6709 63.2701 30.7747 63.907 29.6224C64.5756 28.4702 64.9099 27.0939 64.9099 25.4935C64.9099 23.8932 64.5756 22.5169 63.907 21.3646C63.2701 20.1803 62.3308 19.2841 61.0891 18.676C59.8791 18.0359 58.3985 17.7158 56.6473 17.7158C54.9597 17.7158 53.495 18.0359 52.2532 18.676C51.0114 19.2841 50.0562 20.1803 49.3877 21.3646C48.7191 22.5169 48.3847 23.8932 48.3847 25.4935C48.3847 27.0939 48.7191 28.4702 49.3877 29.6224C50.0562 30.7747 51.0114 31.6709 52.2532 32.311C53.495 32.9191 54.9597 33.2232 56.6473 33.2232ZM9.12239 27.414H0C0.0955224 29.9106 0.923382 32.1031 2.48358 33.9915C4.07562 35.8479 6.2408 37.3042 8.9791 38.3604C11.7493 39.4167 14.9652 39.9448 18.6269 39.9448C22.1612 39.9448 25.2498 39.4327 27.8925 38.4084C30.5672 37.3842 32.6368 35.9599 34.1015 34.1355C35.598 32.2791 36.3463 30.1186 36.3463 27.6541C36.3463 25.6056 35.9005 23.9093 35.009 22.565C34.1174 21.2207 32.6687 20.1644 30.6627 19.3963C28.6567 18.6281 25.9821 18.068 22.6388 17.7159L15.3313 16.8997C13.1662 16.6437 11.6537 16.2436 10.794 15.6995C9.96617 15.1553 9.55224 14.4032 9.55224 13.443C9.55224 12.1627 10.2527 11.1865 11.6537 10.5143C13.0866 9.81017 14.997 9.45809 17.3851 9.45809C19.1682 9.45809 20.6806 9.66614 21.9224 10.0822C23.196 10.4663 24.199 11.0104 24.9313 11.7146C25.6955 12.3867 26.1413 13.2029 26.2687 14.1631H35.391C35.2637 11.8266 34.4199 9.77816 32.8597 8.01778C31.2995 6.25739 29.2139 4.88109 26.603 3.88888C23.992 2.89666 20.9831 2.40055 17.5761 2.40055C14.1373 2.40055 11.1284 2.84865 8.54925 3.74485C6.00199 4.64104 4.01194 5.93732 2.5791 7.63369C1.17811 9.33006 0.477611 11.3785 0.477611 13.779C0.477611 16.8197 1.54428 19.2202 3.67761 20.9806C5.84278 22.741 9.32935 23.8613 14.1373 24.3414L21.0627 25.0615C23.4507 25.3176 25.0746 25.7337 25.9343 26.3098C26.8259 26.8539 27.2716 27.6381 27.2716 28.6623C27.2716 30.0066 26.5075 31.0468 24.9791 31.783C23.4826 32.5191 21.4129 32.8872 18.7701 32.8872C16.9234 32.8872 15.2995 32.6632 13.8985 32.2151C12.5294 31.767 11.4308 31.1268 10.603 30.2947C9.77512 29.4625 9.28159 28.5023 9.12239 27.414Z" fill="#F5F5F5"/>
</svg>
